<?xml version="1.0" encoding="UTF-8" standalone="no"?>
<svg
   height="17"
   viewBox="0 0 17 17"
   width="17"
   version="1.1"
   id="svg12"
   xmlns="http://www.w3.org/2000/svg"
   xmlns:svg="http://www.w3.org/2000/svg">
  <defs
     id="defs16" />
  <rect
     style="fill:#4c587c;fill-opacity:1;stroke-width:0"
     id="rect913"
     width="14"
     height="14"
     x="3"
     y="3"
     rx="4"
     ry="4" />
  <path
     d="M 4.0000004,0 A 3.9999999,3.9999999 0 0 0 0,4 v 6.000001 A 3.9999999,3.9999999 0 0 0 4.0000004,14 H 10.000001 A 3.9999999,3.9999999 0 0 0 14,10.000001 V 4 A 3.9999999,3.9999999 0 0 0 10.000001,0 Z M 2.0000007,5.9999999 a 1.0000001,1.0000001 0 0 1 1.9999997,0 V 8 A 0.99999996,0.99999996 0 0 1 2.0000007,8 Z M 12,8 A 0.99999996,0.99999996 0 0 1 10.000001,8 V 5.9999999 a 0.99999996,0.99999996 0 0 1 1.999999,0 z m -2.1720004,3.828 a 3.9999999,3.9999999 0 0 1 -5.6559993,0 0.99999996,0.99999996 0 0 1 1.414,-1.414 1.9999999,1.9999999 0 0 0 2.8279999,0 0.99999996,0.99999996 0 0 1 1.4139994,1.414 z"
     fill="#8da5f3"
     id="path10"
     style="stroke-width:1" />
</svg>
